<?xml version="1.0" encoding="UTF-8" standalone="no"?>
<!DOCTYPE svg PUBLIC "-//W3C//DTD SVG 1.1//EN"
 "http://www.w3.org/Graphics/SVG/1.1/DTD/svg11.dtd">
<!-- Generated by graphviz version 12.1.1 (20240910.0053)
 -->
<!-- Title: INFRA Pages: 1 -->
<svg width="1763pt" height="404pt"
 viewBox="0.00 0.00 1762.83 404.00" xmlns="http://www.w3.org/2000/svg" xmlns:xlink="http://www.w3.org/1999/xlink">
<g id="graph0" class="graph" transform="scale(1 1) rotate(0) translate(4 400)">
<title>INFRA</title>
<polygon fill="white" stroke="none" points="-4,4 -4,-400 1758.83,-400 1758.83,4 -4,4"/>
<!-- EKS Cluster -->
<g id="node1" class="node">
<title>EKS Cluster</title>
<path fill="#b7e0ff" stroke="black" stroke-width="2" d="M1018.59,-72C1018.59,-72 897.46,-72 897.46,-72 891.46,-72 885.46,-66 885.46,-60 885.46,-60 885.46,-12 885.46,-12 885.46,-6 891.46,0 897.46,0 897.46,0 1018.59,0 1018.59,0 1024.59,0 1030.59,-6 1030.59,-12 1030.59,-12 1030.59,-60 1030.59,-60 1030.59,-66 1024.59,-72 1018.59,-72"/>
<text text-anchor="middle" x="958.03" y="-40.2" font-family="Arial" font-size="14.00">EKS Cluster</text>
<text text-anchor="middle" x="958.03" y="-23.4" font-family="Arial" font-size="14.00">(AWS::EKS::Cluster)</text>
</g>
<!-- EKS Managed Node Group -->
<g id="node2" class="node">
<title>EKS Managed Node Group</title>
<path fill="#b7e0ff" stroke="black" stroke-width="2" d="M1414.25,-180C1414.25,-180 1251.81,-180 1251.81,-180 1245.81,-180 1239.81,-174 1239.81,-168 1239.81,-168 1239.81,-120 1239.81,-120 1239.81,-114 1245.81,-108 1251.81,-108 1251.81,-108 1414.25,-108 1414.25,-108 1420.25,-108 1426.25,-114 1426.25,-120 1426.25,-120 1426.25,-168 1426.25,-168 1426.25,-174 1420.25,-180 1414.25,-180"/>
<text text-anchor="middle" x="1333.03" y="-148.2" font-family="Arial" font-size="14.00">EKS Managed Node Group</text>
<text text-anchor="middle" x="1333.03" y="-131.4" font-family="Arial" font-size="14.00">(AWS::EKS::NodeGroup)</text>
</g>
<!-- EKS Managed Node Group&#45;&gt;EKS Cluster -->
<g id="edge1" class="edge">
<title>EKS Managed Node Group&#45;&gt;EKS Cluster</title>
<path fill="none" stroke="black" d="M1239.46,-110.58C1236.62,-109.7 1233.81,-108.84 1231.03,-108 1168.07,-89.04 1096.07,-70.44 1041.82,-57.04"/>
<polygon fill="black" stroke="black" points="1042.89,-53.7 1032.34,-54.71 1041.21,-60.49 1042.89,-53.7"/>
</g>
<!-- DynamoDB Table -->
<g id="node3" class="node">
<title>DynamoDB Table</title>
<path fill="#ffcfb3" stroke="black" stroke-width="2" d="M1393.71,-389.45C1393.71,-393.07 1353.51,-396 1304.03,-396 1254.54,-396 1214.34,-393.07 1214.34,-389.45 1214.34,-389.45 1214.34,-330.55 1214.34,-330.55 1214.34,-326.93 1254.54,-324 1304.03,-324 1353.51,-324 1393.71,-326.93 1393.71,-330.55 1393.71,-330.55 1393.71,-389.45 1393.71,-389.45"/>
<path fill="none" stroke="black" stroke-width="2" d="M1393.71,-389.45C1393.71,-385.84 1353.51,-382.91 1304.03,-382.91 1254.54,-382.91 1214.34,-385.84 1214.34,-389.45"/>
<text text-anchor="middle" x="1304.03" y="-364.2" font-family="Arial" font-size="14.00">DynamoDB Table</text>
<text text-anchor="middle" x="1304.03" y="-347.4" font-family="Arial" font-size="14.00">(AWS::DynamoDB::Table)</text>
</g>
<!-- Order API IAM Policy -->
<g id="node4" class="node">
<title>Order API IAM Policy</title>
<path fill="#e6e6e6" stroke="black" stroke-width="2" d="M161.15,-72C161.15,-72 36.9,-72 36.9,-72 30.9,-72 24.9,-66 24.9,-60 24.9,-60 24.9,-12 24.9,-12 24.9,-6 30.9,0 36.9,0 36.9,0 161.15,0 161.15,0 167.15,0 173.15,-6 173.15,-12 173.15,-12 173.15,-60 173.15,-60 173.15,-66 167.15,-72 161.15,-72"/>
<text text-anchor="middle" x="99.03" y="-40.2" font-family="Arial" font-size="14.00">Order API IAM Policy</text>
<text text-anchor="middle" x="99.03" y="-23.4" font-family="Arial" font-size="14.00">(AWS::IAM::Policy)</text>
</g>
<!-- Delivery API IAM Policy -->
<g id="node5" class="node">
<title>Delivery API IAM Policy</title>
<path fill="#e6e6e6" stroke="black" stroke-width="2" d="M1612.54,-72C1612.54,-72 1473.51,-72 1473.51,-72 1467.51,-72 1461.51,-66 1461.51,-60 1461.51,-60 1461.51,-12 1461.51,-12 1461.51,-6 1467.51,0 1473.51,0 1473.51,0 1612.54,0 1612.54,0 1618.54,0 1624.54,-6 1624.54,-12 1624.54,-12 1624.54,-60 1624.54,-60 1624.54,-66 1618.54,-72 1612.54,-72"/>
<text text-anchor="middle" x="1543.03" y="-40.2" font-family="Arial" font-size="14.00">Delivery API IAM Policy</text>
<text text-anchor="middle" x="1543.03" y="-23.4" font-family="Arial" font-size="14.00">(AWS::IAM::Policy)</text>
</g>
<!-- Order API Service Account -->
<g id="node6" class="node">
<title>Order API Service Account</title>
<path fill="#e6e6e6" stroke="black" stroke-width="2" d="M186.05,-180C186.05,-180 12,-180 12,-180 6,-180 0,-174 0,-168 0,-168 0,-120 0,-120 0,-114 6,-108 12,-108 12,-108 186.05,-108 186.05,-108 192.05,-108 198.05,-114 198.05,-120 198.05,-120 198.05,-168 198.05,-168 198.05,-174 192.05,-180 186.05,-180"/>
<text text-anchor="middle" x="99.03" y="-148.2" font-family="Arial" font-size="14.00">Order API Service Account</text>
<text text-anchor="middle" x="99.03" y="-131.4" font-family="Arial" font-size="14.00">(AWS::EKS::ServiceAccount)</text>
</g>
<!-- Order API Service Account&#45;&gt;EKS Cluster -->
<g id="edge2" class="edge">
<title>Order API Service Account&#45;&gt;EKS Cluster</title>
<path fill="none" stroke="black" d="M198.26,-109.94C201.21,-109.25 204.13,-108.6 207.03,-108 445.45,-58.72 733.62,-43.57 873.56,-38.97"/>
<polygon fill="black" stroke="black" points="873.61,-42.47 883.5,-38.65 873.39,-35.47 873.61,-42.47"/>
</g>
<!-- Order API Service Account&#45;&gt;Order API IAM Policy -->
<g id="edge3" class="edge">
<title>Order API Service Account&#45;&gt;Order API IAM Policy</title>
<path fill="none" stroke="black" d="M99.03,-107.7C99.03,-99.93 99.03,-91.57 99.03,-83.43"/>
<polygon fill="black" stroke="black" points="102.53,-83.66 99.03,-73.66 95.53,-83.66 102.53,-83.66"/>
</g>
<!-- Delivery API Service Account -->
<g id="node7" class="node">
<title>Delivery API Service Account</title>
<path fill="#e6e6e6" stroke="black" stroke-width="2" d="M1630.06,-180C1630.06,-180 1455.99,-180 1455.99,-180 1449.99,-180 1443.99,-174 1443.99,-168 1443.99,-168 1443.99,-120 1443.99,-120 1443.99,-114 1449.99,-108 1455.99,-108 1455.99,-108 1630.06,-108 1630.06,-108 1636.06,-108 1642.06,-114 1642.06,-120 1642.06,-120 1642.06,-168 1642.06,-168 1642.06,-174 1636.06,-180 1630.06,-180"/>
<text text-anchor="middle" x="1543.03" y="-148.2" font-family="Arial" font-size="14.00">Delivery API Service Account</text>
<text text-anchor="middle" x="1543.03" y="-131.4" font-family="Arial" font-size="14.00">(AWS::EKS::ServiceAccount)</text>
</g>
<!-- Delivery API Service Account&#45;&gt;EKS Cluster -->
<g id="edge4" class="edge">
<title>Delivery API Service Account&#45;&gt;EKS Cluster</title>
<path fill="none" stroke="black" d="M1443.75,-110.14C1440.82,-109.39 1437.91,-108.68 1435.03,-108 1299.33,-76.14 1138.39,-55.69 1042.44,-45.29"/>
<polygon fill="black" stroke="black" points="1042.88,-41.82 1032.57,-44.23 1042.14,-48.78 1042.88,-41.82"/>
</g>
<!-- Delivery API Service Account&#45;&gt;Delivery API IAM Policy -->
<g id="edge5" class="edge">
<title>Delivery API Service Account&#45;&gt;Delivery API IAM Policy</title>
<path fill="none" stroke="black" d="M1543.03,-107.7C1543.03,-99.93 1543.03,-91.57 1543.03,-83.43"/>
<polygon fill="black" stroke="black" points="1546.53,-83.66 1543.03,-73.66 1539.53,-83.66 1546.53,-83.66"/>
</g>
<!-- Order API ECR Repository -->
<g id="node8" class="node">
<title>Order API ECR Repository</title>
<path fill="#fff5cd" stroke="black" stroke-width="2" d="M930.28,-173.45C930.28,-177.07 889.38,-180 839.03,-180 788.68,-180 747.78,-177.07 747.78,-173.45 747.78,-173.45 747.78,-114.55 747.78,-114.55 747.78,-110.93 788.68,-108 839.03,-108 889.38,-108 930.28,-110.93 930.28,-114.55 930.28,-114.55 930.28,-173.45 930.28,-173.45"/>
<path fill="none" stroke="black" stroke-width="2" d="M930.28,-173.45C930.28,-169.84 889.38,-166.91 839.03,-166.91 788.68,-166.91 747.78,-169.84 747.78,-173.45"/>
<text text-anchor="middle" x="839.03" y="-148.2" font-family="Arial" font-size="14.00">Order API ECR Repository</text>
<text text-anchor="middle" x="839.03" y="-131.4" font-family="Arial" font-size="14.00">(AWS::ECR::Repository)</text>
</g>
<!-- Delivery API ECR Repository -->
<g id="node9" class="node">
<title>Delivery API ECR Repository</title>
<path fill="#fff5cd" stroke="black" stroke-width="2" d="M1221.67,-173.45C1221.67,-177.07 1177.45,-180 1123.03,-180 1068.6,-180 1024.39,-177.07 1024.39,-173.45 1024.39,-173.45 1024.39,-114.55 1024.39,-114.55 1024.39,-110.93 1068.6,-108 1123.03,-108 1177.45,-108 1221.67,-110.93 1221.67,-114.55 1221.67,-114.55 1221.67,-173.45 1221.67,-173.45"/>
<path fill="none" stroke="black" stroke-width="2" d="M1221.67,-173.45C1221.67,-169.84 1177.45,-166.91 1123.03,-166.91 1068.6,-166.91 1024.39,-169.84 1024.39,-173.45"/>
<text text-anchor="middle" x="1123.03" y="-148.2" font-family="Arial" font-size="14.00">Delivery API ECR Repository</text>
<text text-anchor="middle" x="1123.03" y="-131.4" font-family="Arial" font-size="14.00">(AWS::ECR::Repository)</text>
</g>
<!-- Order API Deployment -->
<g id="node10" class="node">
<title>Order API Deployment</title>
<path fill="#b7e0ff" stroke="black" stroke-width="2" d="M914.77,-288C914.77,-288 763.28,-288 763.28,-288 757.28,-288 751.28,-282 751.28,-276 751.28,-276 751.28,-228 751.28,-228 751.28,-222 757.28,-216 763.28,-216 763.28,-216 914.77,-216 914.77,-216 920.77,-216 926.77,-222 926.77,-228 926.77,-228 926.77,-276 926.77,-276 926.77,-282 920.77,-288 914.77,-288"/>
<text text-anchor="middle" x="839.03" y="-256.2" font-family="Arial" font-size="14.00">Order API Deployment</text>
<text text-anchor="middle" x="839.03" y="-239.4" font-family="Arial" font-size="14.00">(AWS::EKS::Deployment)</text>
</g>
<!-- Order API Deployment&#45;&gt;EKS Cluster -->
<g id="edge6" class="edge">
<title>Order API Deployment&#45;&gt;EKS Cluster</title>
<path fill="none" stroke="black" d="M905.42,-215.61C918.46,-205.74 930.67,-193.86 939.03,-180 956.38,-151.22 960.77,-113.32 961.01,-83.77"/>
<polygon fill="black" stroke="black" points="964.51,-83.97 960.92,-74 957.51,-84.03 964.51,-83.97"/>
</g>
<!-- Order API Deployment&#45;&gt;Order API Service Account -->
<g id="edge7" class="edge">
<title>Order API Deployment&#45;&gt;Order API Service Account</title>
<path fill="none" stroke="black" d="M750.97,-246.72C630.3,-239.61 406.94,-222 209.45,-180.38"/>
<polygon fill="black" stroke="black" points="210.27,-176.98 199.76,-178.31 208.8,-183.82 210.27,-176.98"/>
</g>
<!-- Order API Deployment&#45;&gt;Order API ECR Repository -->
<g id="edge8" class="edge">
<title>Order API Deployment&#45;&gt;Order API ECR Repository</title>
<path fill="none" stroke="black" d="M839.03,-215.7C839.03,-207.93 839.03,-199.57 839.03,-191.43"/>
<polygon fill="black" stroke="black" points="842.53,-191.66 839.03,-181.66 835.53,-191.66 842.53,-191.66"/>
</g>
<!-- Delivery API Deployment -->
<g id="node11" class="node">
<title>Delivery API Deployment</title>
<path fill="#b7e0ff" stroke="black" stroke-width="2" d="M1198.77,-288C1198.77,-288 1047.28,-288 1047.28,-288 1041.28,-288 1035.28,-282 1035.28,-276 1035.28,-276 1035.28,-228 1035.28,-228 1035.28,-222 1041.28,-216 1047.28,-216 1047.28,-216 1198.77,-216 1198.77,-216 1204.77,-216 1210.77,-222 1210.77,-228 1210.77,-228 1210.77,-276 1210.77,-276 1210.77,-282 1204.77,-288 1198.77,-288"/>
<text text-anchor="middle" x="1123.03" y="-256.2" font-family="Arial" font-size="14.00">Delivery API Deployment</text>
<text text-anchor="middle" x="1123.03" y="-239.4" font-family="Arial" font-size="14.00">(AWS::EKS::Deployment)</text>
</g>
<!-- Delivery API Deployment&#45;&gt;EKS Cluster -->
<g id="edge9" class="edge">
<title>Delivery API Deployment&#45;&gt;EKS Cluster</title>
<path fill="none" stroke="black" d="M1055.32,-215.62C1040.62,-205.6 1026.16,-193.65 1015.03,-180 992.11,-151.9 977.47,-113.43 968.78,-83.46"/>
<polygon fill="black" stroke="black" points="972.17,-82.6 966.13,-73.89 965.42,-84.46 972.17,-82.6"/>
</g>
<!-- Delivery API Deployment&#45;&gt;Delivery API Service Account -->
<g id="edge10" class="edge">
<title>Delivery API Deployment&#45;&gt;Delivery API Service Account</title>
<path fill="none" stroke="black" d="M1210.97,-233.19C1271.06,-220.51 1352.67,-202.28 1432.88,-180.52"/>
<polygon fill="black" stroke="black" points="1433.49,-183.98 1442.22,-177.97 1431.65,-177.23 1433.49,-183.98"/>
</g>
<!-- Delivery API Deployment&#45;&gt;Delivery API ECR Repository -->
<g id="edge11" class="edge">
<title>Delivery API Deployment&#45;&gt;Delivery API ECR Repository</title>
<path fill="none" stroke="black" d="M1123.03,-215.7C1123.03,-207.93 1123.03,-199.57 1123.03,-191.43"/>
<polygon fill="black" stroke="black" points="1126.53,-191.66 1123.03,-181.66 1119.53,-191.66 1126.53,-191.66"/>
</g>
<!-- Order API Service -->
<g id="node12" class="node">
<title>Order API Service</title>
<path fill="#b7e0ff" stroke="black" stroke-width="2" d="M900.76,-396C900.76,-396 777.29,-396 777.29,-396 771.29,-396 765.29,-390 765.29,-384 765.29,-384 765.29,-336 765.29,-336 765.29,-330 771.29,-324 777.29,-324 777.29,-324 900.76,-324 900.76,-324 906.76,-324 912.76,-330 912.76,-336 912.76,-336 912.76,-384 912.76,-384 912.76,-390 906.76,-396 900.76,-396"/>
<text text-anchor="middle" x="839.03" y="-364.2" font-family="Arial" font-size="14.00">Order API Service</text>
<text text-anchor="middle" x="839.03" y="-347.4" font-family="Arial" font-size="14.00">(AWS::EKS::Service)</text>
</g>
<!-- Order API Service&#45;&gt;Order API Deployment -->
<g id="edge12" class="edge">
<title>Order API Service&#45;&gt;Order API Deployment</title>
<path fill="none" stroke="black" d="M839.03,-323.7C839.03,-315.93 839.03,-307.57 839.03,-299.43"/>
<polygon fill="black" stroke="black" points="842.53,-299.66 839.03,-289.66 835.53,-299.66 842.53,-299.66"/>
</g>
<!-- Delivery API Service -->
<g id="node13" class="node">
<title>Delivery API Service</title>
<path fill="#b7e0ff" stroke="black" stroke-width="2" d="M1184.76,-396C1184.76,-396 1061.29,-396 1061.29,-396 1055.29,-396 1049.29,-390 1049.29,-384 1049.29,-384 1049.29,-336 1049.29,-336 1049.29,-330 1055.29,-324 1061.29,-324 1061.29,-324 1184.76,-324 1184.76,-324 1190.76,-324 1196.76,-330 1196.76,-336 1196.76,-336 1196.76,-384 1196.76,-384 1196.76,-390 1190.76,-396 1184.76,-396"/>
<text text-anchor="middle" x="1123.03" y="-364.2" font-family="Arial" font-size="14.00">Delivery API Service</text>
<text text-anchor="middle" x="1123.03" y="-347.4" font-family="Arial" font-size="14.00">(AWS::EKS::Service)</text>
</g>
<!-- Delivery API Service&#45;&gt;Delivery API Deployment -->
<g id="edge13" class="edge">
<title>Delivery API Service&#45;&gt;Delivery API Deployment</title>
<path fill="none" stroke="black" d="M1123.03,-323.7C1123.03,-315.93 1123.03,-307.57 1123.03,-299.43"/>
<polygon fill="black" stroke="black" points="1126.53,-299.66 1123.03,-289.66 1119.53,-299.66 1126.53,-299.66"/>
</g>
<!-- CloudWatch Application Signals Service&#45;Linked Role -->
<g id="node14" class="node">
<title>CloudWatch Application Signals Service&#45;Linked Role</title>
<path fill="#e6e6e6" stroke="black" stroke-width="2" d="M1742.83,-396C1742.83,-396 1423.22,-396 1423.22,-396 1417.22,-396 1411.22,-390 1411.22,-384 1411.22,-384 1411.22,-336 1411.22,-336 1411.22,-330 1417.22,-324 1423.22,-324 1423.22,-324 1742.83,-324 1742.83,-324 1748.83,-324 1754.83,-330 1754.83,-336 1754.83,-336 1754.83,-384 1754.83,-384 1754.83,-390 1748.83,-396 1742.83,-396"/>
<text text-anchor="middle" x="1583.03" y="-364.2" font-family="Arial" font-size="14.00">CloudWatch Application Signals Service&#45;Linked Role</text>
<text text-anchor="middle" x="1583.03" y="-347.4" font-family="Arial" font-size="14.00">(AWS::IAM::ServiceLinkedRole)</text>
</g>
<!-- CloudWatch Agent Service Account -->
<g id="node15" class="node">
<title>CloudWatch Agent Service Account</title>
<path fill="#e6e6e6" stroke="black" stroke-width="2" d="M441.92,-180C441.92,-180 228.14,-180 228.14,-180 222.14,-180 216.14,-174 216.14,-168 216.14,-168 216.14,-120 216.14,-120 216.14,-114 222.14,-108 228.14,-108 228.14,-108 441.92,-108 441.92,-108 447.92,-108 453.92,-114 453.92,-120 453.92,-120 453.92,-168 453.92,-168 453.92,-174 447.92,-180 441.92,-180"/>
<text text-anchor="middle" x="335.03" y="-148.2" font-family="Arial" font-size="14.00">CloudWatch Agent Service Account</text>
<text text-anchor="middle" x="335.03" y="-131.4" font-family="Arial" font-size="14.00">(AWS::EKS::ServiceAccount)</text>
</g>
<!-- CloudWatch Agent Service Account&#45;&gt;EKS Cluster -->
<g id="edge14" class="edge">
<title>CloudWatch Agent Service Account&#45;&gt;EKS Cluster</title>
<path fill="none" stroke="black" d="M454.14,-109.91C457.13,-109.25 460.09,-108.61 463.03,-108 605.92,-78.34 774.58,-57.02 873.56,-45.87"/>
<polygon fill="black" stroke="black" points="873.93,-49.35 883.48,-44.77 873.15,-42.4 873.93,-49.35"/>
</g>
<!-- CloudWatch Observability EKS Add&#45;on -->
<g id="node16" class="node">
<title>CloudWatch Observability EKS Add&#45;on</title>
<path fill="#e6e6e6" stroke="black" stroke-width="2" d="M718.03,-180C718.03,-180 484.03,-180 484.03,-180 478.03,-180 472.03,-174 472.03,-168 472.03,-168 472.03,-120 472.03,-120 472.03,-114 478.03,-108 484.03,-108 484.03,-108 718.03,-108 718.03,-108 724.03,-108 730.03,-114 730.03,-120 730.03,-120 730.03,-168 730.03,-168 730.03,-174 724.03,-180 718.03,-180"/>
<text text-anchor="middle" x="601.03" y="-148.2" font-family="Arial" font-size="14.00">CloudWatch Observability EKS Add&#45;on</text>
<text text-anchor="middle" x="601.03" y="-131.4" font-family="Arial" font-size="14.00">(AWS::EKS::Addon)</text>
</g>
<!-- CloudWatch Observability EKS Add&#45;on&#45;&gt;EKS Cluster -->
<g id="edge15" class="edge">
<title>CloudWatch Observability EKS Add&#45;on&#45;&gt;EKS Cluster</title>
<path fill="none" stroke="black" d="M720.4,-107.56C770.88,-92.57 828.47,-75.47 874.31,-61.86"/>
<polygon fill="black" stroke="black" points="875.06,-65.29 883.65,-59.08 873.07,-58.57 875.06,-65.29"/>
</g>
</g>
</svg>
